<svg width="200" height="33" viewBox="0 0 200 33" fill="none" xmlns="http://www.w3.org/2000/svg">
<path d="M0.15564 6.35172C-0.139915 5.88518 -0.00129768 5.26737 0.465249 4.97182L8.06807 0.155482C8.53462 -0.14007 9.15242 -0.00145571 9.44798 0.465091C9.74353 0.931638 9.60492 1.54944 9.13837 1.845L2.3803 6.12619L6.66149 12.8842C6.95705 13.3508 6.81843 13.9686 6.35188 14.2642C5.88534 14.5597 5.26753 14.4211 4.97198 13.9545L0.15564 6.35172ZM198.535 14.9563C199.053 14.7643 199.629 15.0285 199.821 15.5464C200.013 16.0643 199.748 16.6397 199.23 16.8316L198.883 15.8939L198.535 14.9563ZM5.02743 5.86923C5.55564 6.03051 5.8531 6.58945 5.69182 7.11766C5.53054 7.64587 4.97159 7.94333 4.44338 7.78205L4.73541 6.82564L5.02743 5.86923ZM11.8316 10.2945C11.3122 10.1069 11.0432 9.53372 11.2308 9.01428C11.4185 8.49485 11.9916 8.22587 12.5111 8.41351L12.1713 9.35403L11.8316 10.2945ZM19.8531 11.1076C20.3714 11.2984 20.6368 11.8733 20.446 12.3915C20.2552 12.9098 19.6803 13.1752 19.1621 12.9844L19.5076 12.046L19.8531 11.1076ZM26.5121 15.6567C25.992 15.471 25.7208 14.8988 25.9064 14.3787C26.0921 13.8586 26.6643 13.5874 27.1844 13.7731L26.8483 14.7149L26.5121 15.6567ZM34.5401 16.3282C35.0635 16.5044 35.345 17.0716 35.1687 17.595C34.9924 18.1184 34.4253 18.3998 33.9019 18.2236L34.221 17.2759L34.5401 16.3282ZM41.3879 20.6521C40.8606 20.4879 40.5663 19.9273 40.7305 19.4C40.8948 18.8727 41.4553 18.5783 41.9827 18.7426L41.6853 19.6973L41.3879 20.6521ZM49.4286 20.958C49.96 21.1085 50.2688 21.6613 50.1182 22.1927C49.9677 22.7241 49.4149 23.0328 48.8836 22.8823L49.1561 21.9201L49.4286 20.958ZM56.4678 24.9166C55.9323 24.7812 55.6081 24.2373 55.7435 23.7019C55.879 23.1665 56.4228 22.8422 56.9583 22.9777L56.713 23.9471L56.4678 24.9166ZM64.5557 24.7797C65.0949 24.8991 65.4353 25.4329 65.316 25.9722C65.1967 26.5114 64.6628 26.8518 64.1236 26.7325L64.3396 25.7561L64.5557 24.7797ZM71.797 28.306C71.2543 28.2036 70.8974 27.6806 70.9999 27.1379C71.1023 26.5952 71.6253 26.2383 72.168 26.3407L71.9825 27.3234L71.797 28.306ZM79.8357 27.6609C80.3814 27.7458 80.755 28.257 80.6701 28.8027C80.5852 29.3484 80.074 29.722 79.5283 29.6372L79.682 28.649L79.8357 27.6609ZM87.3056 30.7157C86.7573 30.6489 86.367 30.1504 86.4338 29.6021C86.5006 29.0539 86.9991 28.6636 87.5473 28.7304L87.4264 29.723L87.3056 30.7157ZM95.2923 29.5417C95.8425 29.5899 96.2494 30.075 96.2012 30.6252C96.1529 31.1754 95.6678 31.5823 95.1176 31.534L95.205 30.5379L95.2923 29.5417ZM102.954 32.0868C102.402 32.0574 101.979 31.5864 102.009 31.0349C102.038 30.4834 102.509 30.0602 103.06 30.0896L103.007 31.0882L102.954 32.0868ZM110.842 30.3709C111.394 30.3813 111.833 30.8374 111.823 31.3896C111.812 31.9418 111.356 32.3809 110.804 32.3705L110.823 31.3707L110.842 30.3709ZM118.658 32.3834C118.105 32.392 117.651 31.9513 117.642 31.3991C117.634 30.8469 118.074 30.3923 118.626 30.3836L118.642 31.3835L118.658 32.3834ZM126.405 30.1278C126.957 30.1001 127.426 30.5249 127.454 31.0765C127.482 31.6281 127.057 32.0976 126.505 32.1253L126.455 31.1265L126.405 30.1278ZM134.338 31.5975C133.788 31.6441 133.304 31.2357 133.257 30.6854C133.21 30.135 133.619 29.6512 134.169 29.6046L134.254 30.601L134.338 31.5975ZM141.91 28.8165C142.458 28.7512 142.956 29.1429 143.021 29.6913C143.086 30.2397 142.695 30.7372 142.146 30.8025L142.028 29.8095L141.91 28.8165ZM149.923 29.7439C149.377 29.8276 148.867 29.4528 148.783 28.9069C148.699 28.361 149.074 27.8506 149.62 27.767L149.772 28.7554L149.923 29.7439ZM157.293 26.4605C157.836 26.3588 158.358 26.7164 158.46 27.2592C158.562 27.8021 158.204 28.3246 157.661 28.4263L157.477 27.4434L157.293 26.4605ZM165.355 26.8547C164.816 26.974 164.282 26.6335 164.163 26.0943C164.043 25.555 164.384 25.0212 164.923 24.9019L165.139 25.8783L165.355 26.8547ZM172.506 23.0967C173.042 22.9602 173.586 23.2835 173.722 23.8187C173.859 24.3539 173.536 24.8983 173 25.0347L172.753 24.0657L172.506 23.0967ZM180.594 22.9719C180.064 23.125 179.509 22.8188 179.356 22.2882C179.203 21.7575 179.51 21.2033 180.04 21.0502L180.317 22.0111L180.594 22.9719ZM187.473 18.784C187.999 18.615 188.562 18.9042 188.731 19.43C188.9 19.9558 188.611 20.5191 188.085 20.6881L187.779 19.736L187.473 18.784ZM195.505 18.1816C194.985 18.366 194.413 18.0934 194.229 17.5728C194.044 17.0522 194.317 16.4807 194.838 16.2963L195.171 17.239L195.505 18.1816ZM1.0004 5.81658L1.21932 4.84084C2.38436 5.10223 3.65555 5.45034 5.02743 5.86923L4.73541 6.82564L4.44338 7.78205C3.10285 7.37274 1.88266 7.03939 0.781471 6.79232L1.0004 5.81658ZM12.1713 9.35403L12.5111 8.41351C14.7745 9.23111 17.2266 10.1405 19.8531 11.1076L19.5076 12.046L19.1621 12.9844C16.5292 12.0149 14.0873 11.1094 11.8316 10.2945L12.1713 9.35403ZM26.8483 14.7149L27.1844 13.7731C29.5253 14.6086 31.9779 15.4653 34.5401 16.3282L34.221 17.2759L33.9019 18.2236C31.326 17.3562 28.8619 16.4954 26.5121 15.6567L26.8483 14.7149ZM41.6853 19.6973L41.9827 18.7426C44.3841 19.4905 46.8666 20.2323 49.4286 20.958L49.1561 21.9201L48.8836 22.8823C46.3036 22.1515 43.8045 21.4047 41.3879 20.6521L41.6853 19.6973ZM56.713 23.9471L56.9583 22.9777C59.4265 23.6021 61.9593 24.2053 64.5557 24.7797L64.3396 25.7561L64.1236 26.7325C61.5068 26.1535 58.9544 25.5457 56.4678 24.9166L56.713 23.9471ZM71.9825 27.3234L72.168 26.3407C74.6712 26.8132 77.2274 27.2553 79.8357 27.6609L79.682 28.649L79.5283 29.6372C76.8982 29.2281 74.3207 28.7824 71.797 28.306L71.9825 27.3234ZM87.4264 29.723L87.5473 28.7304C90.0843 29.0393 92.6663 29.3114 95.2923 29.5417L95.205 30.5379L95.1176 31.534C92.4686 31.3017 89.8644 31.0273 87.3056 30.7157L87.4264 29.723ZM103.007 31.0882L103.06 30.0896C105.616 30.226 108.21 30.3211 110.842 30.3709L110.823 31.3707L110.804 32.3705C108.149 32.3203 105.532 32.2244 102.954 32.0868L103.007 31.0882ZM118.642 31.3835L118.626 30.3836C121.186 30.3436 123.779 30.2595 126.405 30.1278L126.455 31.1265L126.505 32.1253C123.856 32.2582 121.24 32.343 118.658 32.3834L118.642 31.3835ZM134.254 30.601L134.169 29.6046C136.72 29.3887 139.301 29.127 141.91 28.8165L142.028 29.8095L142.146 30.8025C139.514 31.1157 136.911 31.3797 134.338 31.5975L134.254 30.601ZM149.772 28.7554L149.62 27.767C152.152 27.3789 154.71 26.9443 157.293 26.4605L157.477 27.4434L157.661 28.4263C155.056 28.9142 152.477 29.3525 149.923 29.7439L149.772 28.7554ZM165.139 25.8783L164.923 24.9019C167.428 24.3477 169.956 23.7467 172.506 23.0967L172.753 24.0657L173 25.0347C170.43 25.6899 167.881 26.2959 165.355 26.8547L165.139 25.8783ZM180.317 22.0111L180.04 21.0502C182.498 20.3414 184.976 19.5866 187.473 18.784L187.779 19.736L188.085 20.6881C185.569 21.4968 183.072 22.2575 180.594 22.9719L180.317 22.0111ZM195.171 17.239L194.838 16.2963C196.066 15.8614 197.298 15.4147 198.535 14.9563L198.883 15.8939L199.23 16.8316C197.984 17.2934 196.743 17.7434 195.505 18.1816L195.171 17.239Z" fill="url(#paint0_linear_558_2715)"/>
<defs>
<linearGradient id="paint0_linear_558_2715" x1="198.772" y1="13.1027" x2="1.60274" y2="20.9503" gradientUnits="userSpaceOnUse">
<stop/>
<stop offset="1" stop-color="#A2CF6A"/>
</linearGradient>
</defs>
</svg>
