<svg width="32" height="32" viewBox="0 0 32 32" fill="none" xmlns="http://www.w3.org/2000/svg">
<path d="M15.75 31.5C24.4485 31.5 31.5 24.4485 31.5 15.75C31.5 7.05152 24.4485 0 15.75 0C7.05152 0 0 7.05152 0 15.75C0 24.4485 7.05152 31.5 15.75 31.5Z" fill="url(#paint0_linear_732_2745)"/>
<path d="M21.6154 20.5668L22.3151 16.1214H17.9383V13.2379C17.9383 12.0214 18.5487 10.835 20.509 10.835H22.5V7.05036C22.5 7.05036 20.6938 6.75 18.9678 6.75C15.3616 6.75 13.0069 8.87956 13.0069 12.7332V16.1214H9V20.5668H13.0069V31.3138C13.8113 31.437 14.6342 31.5 15.4726 31.5C16.3109 31.5 17.134 31.437 17.9383 31.3138V20.5668H21.6154Z" fill="white"/>
<defs>
<linearGradient id="paint0_linear_732_2745" x1="15.75" y1="0" x2="15.75" y2="31.4066" gradientUnits="userSpaceOnUse">
<stop stop-color="#18ACFE"/>
<stop offset="1" stop-color="#0163E0"/>
</linearGradient>
</defs>
</svg>
