<svg width="32" height="32" viewBox="0 0 32 32" fill="none" xmlns="http://www.w3.org/2000/svg">
<path d="M24.75 0H6.75C3.02208 0 0 3.02208 0 6.75V24.75C0 28.4779 3.02208 31.5 6.75 31.5H24.75C28.4779 31.5 31.5 28.4779 31.5 24.75V6.75C31.5 3.02208 28.4779 0 24.75 0Z" fill="url(#paint0_radial_732_2750)"/>
<path d="M24.75 0H6.75C3.02208 0 0 3.02208 0 6.75V24.75C0 28.4779 3.02208 31.5 6.75 31.5H24.75C28.4779 31.5 31.5 28.4779 31.5 24.75V6.75C31.5 3.02208 28.4779 0 24.75 0Z" fill="url(#paint1_radial_732_2750)"/>
<path d="M24.75 0H6.75C3.02208 0 0 3.02208 0 6.75V24.75C0 28.4779 3.02208 31.5 6.75 31.5H24.75C28.4779 31.5 31.5 28.4779 31.5 24.75V6.75C31.5 3.02208 28.4779 0 24.75 0Z" fill="url(#paint2_radial_732_2750)"/>
<path d="M23.625 9.5625C23.625 10.4945 22.8695 11.25 21.9375 11.25C21.0055 11.25 20.25 10.4945 20.25 9.5625C20.25 8.63052 21.0055 7.875 21.9375 7.875C22.8695 7.875 23.625 8.63052 23.625 9.5625Z" fill="white"/>
<path fill-rule="evenodd" clip-rule="evenodd" d="M15.75 21.375C18.8566 21.375 21.375 18.8566 21.375 15.75C21.375 12.6434 18.8566 10.125 15.75 10.125C12.6434 10.125 10.125 12.6434 10.125 15.75C10.125 18.8566 12.6434 21.375 15.75 21.375ZM15.75 19.125C17.614 19.125 19.125 17.614 19.125 15.75C19.125 13.886 17.614 12.375 15.75 12.375C13.886 12.375 12.375 13.886 12.375 15.75C12.375 17.614 13.886 19.125 15.75 19.125Z" fill="white"/>
<path fill-rule="evenodd" clip-rule="evenodd" d="M4.5 15.3C4.5 11.5197 4.5 9.62944 5.23571 8.18557C5.88285 6.91547 6.91547 5.88285 8.18557 5.23571C9.62944 4.5 11.5197 4.5 15.3 4.5H16.2C19.9803 4.5 21.8706 4.5 23.3144 5.23571C24.5845 5.88285 25.6172 6.91547 26.2643 8.18557C27 9.62944 27 11.5197 27 15.3V16.2C27 19.9803 27 21.8706 26.2643 23.3144C25.6172 24.5845 24.5845 25.6172 23.3144 26.2643C21.8706 27 19.9803 27 16.2 27H15.3C11.5197 27 9.62944 27 8.18557 26.2643C6.91547 25.6172 5.88285 24.5845 5.23571 23.3144C4.5 21.8706 4.5 19.9803 4.5 16.2V15.3ZM15.3 6.75H16.2C18.1273 6.75 19.4374 6.75175 20.4501 6.83449C21.4367 6.91508 21.9411 7.06116 22.293 7.24047C23.1397 7.6719 23.8281 8.36031 24.2595 9.207C24.4388 9.5589 24.585 10.0633 24.6655 11.0499C24.7482 12.0626 24.75 13.3727 24.75 15.3V16.2C24.75 18.1273 24.7482 19.4374 24.6655 20.4501C24.585 21.4367 24.4388 21.9411 24.2595 22.293C23.8281 23.1397 23.1397 23.8281 22.293 24.2595C21.9411 24.4388 21.4367 24.585 20.4501 24.6655C19.4374 24.7482 18.1273 24.75 16.2 24.75H15.3C13.3727 24.75 12.0626 24.7482 11.0499 24.6655C10.0633 24.585 9.5589 24.4388 9.207 24.2595C8.36031 23.8281 7.6719 23.1397 7.24047 22.293C7.06116 21.9411 6.91508 21.4367 6.83449 20.4501C6.75175 19.4374 6.75 18.1273 6.75 16.2V15.3C6.75 13.3727 6.75175 12.0626 6.83449 11.0499C6.91508 10.0633 7.06116 9.5589 7.24047 9.207C7.6719 8.36031 8.36031 7.6719 9.207 7.24047C9.5589 7.06116 10.0633 6.91508 11.0499 6.83449C12.0626 6.75175 13.3727 6.75 15.3 6.75Z" fill="white"/>
<defs>
<radialGradient id="paint0_radial_732_2750" cx="0" cy="0" r="1" gradientUnits="userSpaceOnUse" gradientTransform="translate(11.25 23.625) rotate(-55.3758) scale(28.7096)">
<stop stop-color="#B13589"/>
<stop offset="0.79309" stop-color="#C62F94"/>
<stop offset="1" stop-color="#8A3AC8"/>
</radialGradient>
<radialGradient id="paint1_radial_732_2750" cx="0" cy="0" r="1" gradientUnits="userSpaceOnUse" gradientTransform="translate(10.125 32.625) rotate(-65.1363) scale(25.4185)">
<stop stop-color="#E0E8B7"/>
<stop offset="0.444662" stop-color="#FB8A2E"/>
<stop offset="0.71474" stop-color="#E2425C"/>
<stop offset="1" stop-color="#E2425C" stop-opacity="0"/>
</radialGradient>
<radialGradient id="paint2_radial_732_2750" cx="0" cy="0" r="1" gradientUnits="userSpaceOnUse" gradientTransform="translate(-1.6875 1.125) rotate(-8.1301) scale(43.7523 9.35815)">
<stop offset="0.156701" stop-color="#406ADC"/>
<stop offset="0.467799" stop-color="#6A45BE"/>
<stop offset="1" stop-color="#6A45BE" stop-opacity="0"/>
</radialGradient>
</defs>
</svg>
