<svg width="90" height="79" viewBox="0 0 90 79" fill="none" xmlns="http://www.w3.org/2000/svg">
<g clip-path="url(#clip0_147_50)">
<path d="M43.0417 48.2127C39.0588 48.2127 35.3328 46.6709 32.5223 43.8443C27.5918 38.9139 26.7567 31.0926 30.5469 25.2466L41.4999 8.2871C41.8372 7.75712 42.4314 7.43591 43.0578 7.43591C43.6841 7.43591 44.2783 7.75712 44.6156 8.2871L47.924 13.4103C48.4861 14.2775 48.2291 15.4178 47.3619 15.9799C46.4946 16.542 45.3383 16.2851 44.7923 15.4178L43.0417 12.7358L33.6626 27.2702C30.836 31.6547 31.4623 37.5327 35.1562 41.2265C39.5085 45.5788 46.591 45.5788 50.9433 41.2265C52.0836 40.0863 52.9508 38.7372 53.5129 37.2115C53.8663 36.2479 54.9423 35.75 55.9059 36.1194C56.8695 36.4727 57.3674 37.5487 56.998 38.5124C56.2432 40.5359 55.0868 42.3347 53.5611 43.8604C50.7666 46.6709 47.0246 48.2127 43.0417 48.2127Z" fill="white"/>
<path d="M55.247 15.0484L50.8305 21.8901C49.4975 23.9618 49.7866 26.7081 51.5211 28.4587C53.5768 30.5144 56.9012 30.5144 58.9569 28.4587C60.6914 26.7242 60.9805 23.9618 59.6475 21.8901L55.247 15.0484ZM55.247 33.7264C52.8541 33.7264 50.5896 32.7949 48.9033 31.0926C45.9321 28.1214 45.4343 23.4158 47.7148 19.8826L53.6892 10.6158C54.0265 10.0859 54.6207 9.76465 55.247 9.76465C55.8734 9.76465 56.4676 10.0859 56.8049 10.6158L62.7793 19.8826C65.0598 23.4158 64.5459 28.1214 61.5908 31.0926C59.9045 32.7789 57.6561 33.7264 55.247 33.7264Z" fill="white"/>
<path d="M14.166 52.6292C14.166 52.3561 14.2624 52.1152 14.4551 51.9225C14.6478 51.7298 14.8727 51.6334 15.1617 51.6334C15.4348 51.6334 15.6757 51.7298 15.8684 51.9225C16.0611 52.1152 16.1575 52.3401 16.1575 52.6292C16.1575 52.9182 16.0611 53.1431 15.8684 53.3358C15.6757 53.5285 15.4508 53.6249 15.1617 53.6249C14.8887 53.6249 14.6478 53.5285 14.4551 53.3358C14.2624 53.1431 14.166 52.9022 14.166 52.6292ZM14.4069 56.323C14.4069 56.1142 14.4872 55.9375 14.6318 55.793C14.7763 55.6485 14.953 55.5682 15.1617 55.5682C15.3705 55.5682 15.5472 55.6485 15.6917 55.793C15.8363 55.9375 15.9166 56.1142 15.9166 56.323V67.8381C15.9166 68.0469 15.8363 68.2236 15.6917 68.3681C15.5472 68.5127 15.3705 68.593 15.1617 68.593C14.953 68.593 14.7763 68.5127 14.6318 68.3681C14.4872 68.2236 14.4069 68.0469 14.4069 67.8381V56.323Z" fill="white" stroke="white" stroke-width="0.481805" stroke-miterlimit="10"/>
<path d="M34.1442 67.9666C34.112 68.1112 34.0317 68.2396 33.8872 68.3199C33.7427 68.4163 33.5981 68.4645 33.4214 68.4645C33.2608 68.4645 33.1163 68.4163 32.9718 68.3199C32.8272 68.2236 32.7469 68.1112 32.6987 67.9666L29.5831 58.6838L26.4674 67.9666C26.4032 68.1112 26.3068 68.2396 26.1783 68.3199C26.0498 68.4163 25.8892 68.4645 25.7126 68.4645C25.5359 68.4645 25.3914 68.4163 25.2468 68.3199C25.1183 68.2236 25.022 68.1112 24.9577 67.9666L21.0872 56.4997C21.0069 56.2587 21.0391 56.0178 21.1997 55.793C21.3603 55.5682 21.569 55.4718 21.826 55.4718C22.0027 55.4718 22.1472 55.52 22.2917 55.6324C22.4202 55.7288 22.5166 55.8733 22.5808 56.0178L25.6965 65.3649L28.8122 56.0178C28.8764 55.8572 28.9728 55.7288 29.1013 55.6324C29.2297 55.536 29.3903 55.4718 29.567 55.4718C29.7276 55.4718 29.8721 55.52 30.0167 55.6324C30.1612 55.7288 30.2576 55.8733 30.3058 56.0178L33.4054 65.3649L36.5211 56.0178C36.5853 55.8572 36.6817 55.7288 36.8101 55.6324C36.9547 55.536 37.0992 55.4718 37.2598 55.4718C37.5168 55.4718 37.7256 55.5842 37.8862 55.793C38.0468 56.0178 38.0789 56.2427 37.9825 56.4997L34.1442 67.9666Z" fill="white" stroke="white" stroke-width="0.481805" stroke-miterlimit="10"/>
<path d="M62.4411 58.3144C61.9272 58.0735 61.4133 57.8487 60.8833 57.6881C60.3533 57.5114 59.7591 57.4311 59.0685 57.4311C58.0728 57.4311 57.3019 57.6239 56.7237 57.9932C56.1456 58.3787 55.8565 58.8123 55.8565 59.3262C55.8565 59.9847 56.0652 60.4665 56.4828 60.7716C56.9004 61.0929 57.4946 61.2856 58.2494 61.398L60.7227 61.7834C61.2045 61.8637 61.6542 61.9762 62.0878 62.1528C62.5214 62.3295 62.8908 62.5704 63.2281 62.8755C63.5493 63.1807 63.8063 63.5501 63.999 63.9997C64.1756 64.4494 64.272 64.9634 64.272 65.5576C64.2559 66.73 63.7902 67.6454 62.8748 68.336C61.9593 69.0266 60.7066 69.3799 59.1167 69.3799C58.2655 69.3799 57.4464 69.2514 56.6434 69.0266C55.8404 68.7857 55.1016 68.4645 54.4432 68.079C54.2023 67.9345 54.0898 67.7096 54.0898 67.4206C54.0898 67.276 54.122 67.1475 54.2023 67.0351C54.2826 66.9227 54.3629 66.8263 54.4753 66.7621C54.5877 66.6979 54.7001 66.6657 54.8286 66.6497C54.9571 66.6497 55.0856 66.6818 55.2141 66.746C55.7601 67.0512 56.3543 67.3242 57.0289 67.5812C57.7034 67.8221 58.394 67.9505 59.1006 67.9505C60.2409 67.9505 61.1242 67.7257 61.7666 67.2921C62.409 66.8424 62.7302 66.2482 62.7302 65.4933C62.7302 64.867 62.5375 64.3691 62.136 63.9997C61.7505 63.6304 61.0921 63.3734 60.1767 63.2289L57.7516 62.8434C57.3501 62.7792 56.9325 62.6828 56.531 62.5383C56.1295 62.3937 55.7601 62.1849 55.4228 61.9119C55.1016 61.6389 54.8286 61.3016 54.6198 60.9001C54.4111 60.4986 54.3147 59.9847 54.3147 59.3905C54.3147 58.8444 54.4432 58.3787 54.7001 57.9451C54.9571 57.5275 55.3104 57.1581 55.744 56.869C56.1777 56.5799 56.6755 56.3551 57.2537 56.2106C57.8158 56.066 58.4261 55.9857 59.0524 55.9857C59.8876 55.9857 60.6103 56.066 61.2527 56.2427C61.879 56.4193 62.5054 56.6763 63.1157 57.0136C63.2441 57.0939 63.3566 57.1742 63.4369 57.2866C63.5172 57.399 63.5653 57.5275 63.5653 57.6881C63.5653 57.8326 63.5332 57.9611 63.4529 58.0735C63.3726 58.186 63.2923 58.2663 63.1799 58.3305C63.0675 58.3947 62.939 58.4269 62.8105 58.4269C62.7142 58.4269 62.5857 58.3947 62.4411 58.3144Z" fill="white" stroke="white" stroke-width="0.481805" stroke-miterlimit="10"/>
<path d="M66.7136 52.6774C66.8581 52.5328 67.0348 52.4525 67.2435 52.4525C67.4523 52.4525 67.629 52.5328 67.7735 52.6774C67.9181 52.8219 67.9984 52.9986 67.9984 53.2073V58.6196C68.1269 58.3145 68.3356 58.0093 68.5926 57.6881C68.8656 57.383 69.1868 57.0939 69.5562 56.853C69.9256 56.6121 70.3432 56.4033 70.8089 56.2427C71.2746 56.0821 71.7565 56.0018 72.2543 56.0018C73.0413 56.0018 73.7479 56.1303 74.3743 56.3712C75.0006 56.6121 75.5306 56.9654 75.9642 57.4151C76.3978 57.8648 76.719 58.3948 76.96 59.0051C77.2009 59.6314 77.3133 60.3059 77.3133 61.0447V68.4485C77.3133 68.6572 77.233 68.8339 77.0884 68.9784C76.9439 69.123 76.7672 69.2033 76.5584 69.2033C76.3497 69.2033 76.173 69.123 76.0285 68.9784C75.8839 68.8339 75.8036 68.6572 75.8036 68.4485V61.0447C75.8036 59.9687 75.4824 59.1014 74.8239 58.4269C74.1815 57.7684 73.3143 57.4312 72.2383 57.4312C71.7083 57.4312 71.1944 57.5275 70.6965 57.7203C70.1986 57.913 69.7489 58.186 69.3474 58.5233C68.9459 58.8605 68.6247 59.262 68.3678 59.7278C68.1269 60.1935 67.9823 60.6753 67.9823 61.2053V68.4324C67.9823 68.6412 67.902 68.8178 67.7575 68.9624C67.6129 69.1069 67.4363 69.1872 67.2275 69.1872C67.0187 69.1872 66.842 69.1069 66.6975 68.9624C66.553 68.8178 66.4727 68.6412 66.4727 68.4324V53.1913C66.4887 52.9986 66.569 52.8219 66.7136 52.6774Z" fill="white" stroke="white" stroke-width="0.481805" stroke-miterlimit="10"/>
<path d="M48.6945 56.3391C49.6902 56.9172 50.4611 57.7042 51.0393 58.716C51.6174 59.7278 51.9065 60.8359 51.9065 62.0725V67.3563C51.9065 67.7097 51.7941 67.9987 51.5693 68.2236C51.3444 68.4484 51.0553 68.5608 50.702 68.5608C50.3487 68.5608 50.0596 68.4484 49.8348 68.2236C49.6099 67.9987 49.4975 67.7097 49.4975 67.3563V66.4891C48.9515 67.1636 48.2769 67.6936 47.4739 68.079C46.687 68.4645 45.8358 68.6411 44.9204 68.6411C43.7801 68.6411 42.7522 68.3521 41.8207 67.79C40.8893 67.2279 40.1665 66.4409 39.6366 65.4291C39.1066 64.4334 38.8496 63.3092 38.8496 62.0725C38.8496 60.8359 39.1387 59.7278 39.7008 58.716C40.2629 57.7202 41.0499 56.9172 42.0616 56.3391C43.0574 55.7609 44.1816 55.4718 45.3861 55.4718C46.5906 55.4879 47.6988 55.7769 48.6945 56.3391ZM47.5221 65.927C48.1645 65.5415 48.6624 65.0115 49.0318 64.337C49.4011 63.6625 49.5778 62.9077 49.5778 62.0725C49.5778 61.2374 49.4011 60.4826 49.0318 59.792C48.6624 59.1175 48.1645 58.5714 47.5221 58.186C46.8797 57.8005 46.173 57.6078 45.37 57.6078C44.5831 57.6078 43.8604 57.8005 43.218 58.186C42.5756 58.5714 42.0777 59.1014 41.7083 59.792C41.3389 60.4665 41.1462 61.2374 41.1462 62.0725C41.1462 62.9077 41.3389 63.6625 41.7083 64.337C42.0777 65.0115 42.5916 65.5415 43.218 65.927C43.8604 66.3124 44.567 66.5051 45.37 66.5051C46.173 66.5051 46.8797 66.3124 47.5221 65.927Z" fill="white"/>
</g>
<defs>
<clipPath id="clip0_147_50">
<rect width="89.1822" height="79" fill="white"/>
</clipPath>
</defs>
</svg>
