<svg width="123" height="109" viewBox="0 0 123 109" fill="none" xmlns="http://www.w3.org/2000/svg">
<g clip-path="url(#clip0_331_45)">
<path d="M59.363 66.4952C53.8697 66.4952 48.7309 64.3688 44.8546 60.4703C38.0544 53.6702 36.9026 42.883 42.1301 34.8203L57.2366 11.4296C57.7017 10.6986 58.5213 10.2556 59.3852 10.2556C60.249 10.2556 61.0686 10.6986 61.5337 11.4296L66.0967 18.4955C66.8719 19.6916 66.5175 21.2643 65.3214 22.0396C64.1253 22.8148 62.5305 22.4604 61.7774 21.2643L59.363 17.5652L46.4272 37.6112C42.5288 43.6582 43.3926 51.7652 48.4872 56.8598C54.4899 62.8625 64.2582 62.8625 70.2609 56.8598C71.8336 55.2871 73.0297 53.4265 73.805 51.3222C74.2923 49.9932 75.7764 49.3066 77.1054 49.816C78.4344 50.3033 79.1211 51.7874 78.6116 53.1164C77.5705 55.9073 75.9757 58.3882 73.8714 60.4925C70.0173 64.3688 64.8563 66.4952 59.363 66.4952Z" fill="#016AB5"/>
<path d="M76.1967 20.755L70.1054 30.191C68.2669 33.0484 68.6656 36.8361 71.0578 39.2505C73.8931 42.0857 78.4782 42.0857 81.3134 39.2505C83.7056 36.8582 84.1043 33.0484 82.2659 30.191L76.1967 20.755ZM76.1967 46.5157C72.8963 46.5157 69.7731 45.231 67.4473 42.8831C63.3495 38.7853 62.6629 32.2953 65.8082 27.4222L74.0481 14.6415C74.5133 13.9105 75.3328 13.4675 76.1967 13.4675C77.0606 13.4675 77.8801 13.9105 78.3453 14.6415L86.5852 27.4222C89.7305 32.2953 89.0217 38.7853 84.9461 42.8831C82.6203 45.2089 79.5192 46.5157 76.1967 46.5157Z" fill="#016AB5"/>
<path d="M19.5352 72.5865C19.5352 72.2099 19.6681 71.8776 19.9339 71.6118C20.1997 71.346 20.5098 71.2131 20.9085 71.2131C21.285 71.2131 21.6173 71.346 21.8831 71.6118C22.1489 71.8776 22.2818 72.1877 22.2818 72.5865C22.2818 72.9852 22.1489 73.2953 21.8831 73.5611C21.6173 73.8269 21.3072 73.9598 20.9085 73.9598C20.5319 73.9598 20.1997 73.8269 19.9339 73.5611C19.6681 73.2953 19.5352 72.963 19.5352 72.5865ZM19.8674 77.681C19.8674 77.3931 19.9782 77.1494 20.1775 76.9501C20.3769 76.7507 20.6205 76.64 20.9085 76.64C21.1964 76.64 21.4401 76.7507 21.6394 76.9501C21.8388 77.1494 21.9495 77.3931 21.9495 77.681V93.5628C21.9495 93.8507 21.8388 94.0944 21.6394 94.2937C21.4401 94.4931 21.1964 94.6038 20.9085 94.6038C20.6205 94.6038 20.3769 94.4931 20.1775 94.2937C19.9782 94.0944 19.8674 93.8507 19.8674 93.5628V77.681Z" fill="#016AB5" stroke="#016AB5" stroke-width="0.664508" stroke-miterlimit="10"/>
<path d="M47.09 93.74C47.0457 93.9394 46.9349 94.1166 46.7356 94.2273C46.5362 94.3602 46.3369 94.4267 46.0932 94.4267C45.8717 94.4267 45.6724 94.3602 45.473 94.2273C45.2737 94.0944 45.1629 93.9394 45.0964 93.74L40.7993 80.9371L36.5021 93.74C36.4135 93.9394 36.2806 94.1166 36.1034 94.2273C35.9262 94.3602 35.7047 94.4267 35.4611 94.4267C35.2174 94.4267 35.0181 94.3602 34.8187 94.2273C34.6415 94.0944 34.5086 93.9394 34.42 93.74L29.0818 77.9247C28.971 77.5924 29.0153 77.2602 29.2368 76.9501C29.4584 76.64 29.7463 76.5071 30.1007 76.5071C30.3444 76.5071 30.5437 76.5735 30.7431 76.7286C30.9203 76.8615 31.0532 77.0608 31.1418 77.2602L35.4389 90.1517L39.7361 77.2602C39.8247 77.0387 39.9576 76.8615 40.1348 76.7286C40.312 76.5957 40.5335 76.5071 40.7771 76.5071C40.9986 76.5071 41.198 76.5735 41.3974 76.7286C41.5967 76.8615 41.7296 77.0608 41.7961 77.2602L46.0711 90.1517L50.3682 77.2602C50.4568 77.0387 50.5897 76.8615 50.7669 76.7286C50.9663 76.5957 51.1656 76.5071 51.3871 76.5071C51.7415 76.5071 52.0295 76.6621 52.251 76.9501C52.4725 77.2602 52.5168 77.5703 52.3839 77.9247L47.09 93.74Z" fill="#016AB5" stroke="#016AB5" stroke-width="0.664508" stroke-miterlimit="10"/>
<path d="M86.1197 80.4276C85.4109 80.0954 84.7021 79.7853 83.9711 79.5638C83.2402 79.3201 82.4206 79.2093 81.4682 79.2093C80.0948 79.2093 79.0316 79.4751 78.2342 79.9846C77.4368 80.5162 77.0381 81.1143 77.0381 81.8231C77.0381 82.7312 77.3261 83.3957 77.902 83.8166C78.4779 84.2596 79.2974 84.5254 80.3385 84.6805L83.7496 85.2121C84.4141 85.3228 85.0343 85.4779 85.6324 85.7215C86.2305 85.9652 86.7399 86.2974 87.2051 86.7183C87.6481 87.1391 88.0025 87.6486 88.2683 88.2688C88.5119 88.889 88.6448 89.5978 88.6448 90.4174C88.6227 92.0344 87.9803 93.2969 86.7178 94.2494C85.4552 95.2018 83.7275 95.6892 81.5346 95.6892C80.3606 95.6892 79.231 95.5119 78.1235 95.2018C77.0159 94.8696 75.997 94.4266 75.0889 93.895C74.7566 93.6956 74.6016 93.3855 74.6016 92.9868C74.6016 92.7875 74.6459 92.6103 74.7566 92.4552C74.8674 92.3002 74.9781 92.1673 75.1332 92.0787C75.2882 91.9901 75.4433 91.9458 75.6205 91.9236C75.7977 91.9236 75.9749 91.9679 76.1521 92.0565C76.9052 92.4774 77.7248 92.8539 78.6551 93.2083C79.5854 93.5406 80.5378 93.7178 81.5125 93.7178C83.0851 93.7178 84.3034 93.4077 85.1894 92.8096C86.0754 92.1894 86.5184 91.3698 86.5184 90.3288C86.5184 89.4649 86.2526 88.7783 85.6989 88.2688C85.1672 87.7594 84.2591 87.405 82.9965 87.2056L79.6518 86.674C79.0981 86.5854 78.5222 86.4525 77.9684 86.2531C77.4147 86.0538 76.9052 85.7658 76.44 85.3893C75.997 85.0127 75.6205 84.5476 75.3325 83.9938C75.0446 83.4401 74.9117 82.7312 74.9117 81.9117C74.9117 81.1586 75.0889 80.5162 75.4433 79.9182C75.7977 79.3422 76.285 78.8328 76.883 78.4341C77.4811 78.0354 78.1678 77.7253 78.9652 77.5259C79.7404 77.3266 80.5821 77.2158 81.446 77.2158C82.5978 77.2158 83.5946 77.3266 84.4806 77.5702C85.3445 77.8139 86.2083 78.1683 87.05 78.6334C87.2272 78.7442 87.3823 78.8549 87.493 79.01C87.6038 79.165 87.6702 79.3422 87.6702 79.5638C87.6702 79.7631 87.6259 79.9403 87.5152 80.0954C87.4044 80.2504 87.2937 80.3612 87.1386 80.4498C86.9836 80.5384 86.8064 80.5827 86.6292 80.5827C86.4963 80.5827 86.3191 80.5384 86.1197 80.4276Z" fill="#016AB5" stroke="#016AB5" stroke-width="0.664508" stroke-miterlimit="10"/>
<path d="M92.0119 72.6529C92.2113 72.4536 92.455 72.3428 92.7429 72.3428C93.0309 72.3428 93.2745 72.4536 93.4739 72.6529C93.6732 72.8523 93.784 73.0959 93.784 73.3839V80.8485C93.9612 80.4277 94.2491 80.0068 94.6035 79.5638C94.9801 79.1429 95.4231 78.7442 95.9325 78.412C96.442 78.0797 97.0179 77.7918 97.6603 77.5703C98.3026 77.3488 98.9671 77.238 99.6538 77.238C100.739 77.238 101.714 77.4152 102.578 77.7475C103.441 78.0797 104.172 78.567 104.771 79.1872C105.369 79.8074 105.812 80.5384 106.144 81.3801C106.476 82.244 106.631 83.1743 106.631 84.1932V94.4045C106.631 94.6924 106.52 94.9361 106.321 95.1354C106.122 95.3348 105.878 95.4455 105.59 95.4455C105.302 95.4455 105.058 95.3348 104.859 95.1354C104.66 94.9361 104.549 94.6924 104.549 94.4045V84.1932C104.549 82.7091 104.106 81.513 103.198 80.5827C102.312 79.6745 101.116 79.2094 99.6316 79.2094C98.9007 79.2094 98.1919 79.3423 97.5052 79.6081C96.8186 79.8739 96.1983 80.2505 95.6446 80.7156C95.0908 81.1808 94.6478 81.7345 94.2934 82.3769C93.9612 83.0192 93.7618 83.6837 93.7618 84.4147V94.3823C93.7618 94.6703 93.6511 94.9139 93.4517 95.1133C93.2524 95.3126 93.0087 95.4234 92.7208 95.4234C92.4328 95.4234 92.1891 95.3126 91.9898 95.1133C91.7904 94.9139 91.6797 94.6703 91.6797 94.3823V73.3617C91.7018 73.0959 91.8126 72.8523 92.0119 72.6529Z" fill="#016AB5" stroke="#016AB5" stroke-width="0.664508" stroke-miterlimit="10"/>
<path d="M67.1602 77.7032C68.5335 78.5006 69.5967 79.586 70.3941 80.9814C71.1915 82.3769 71.5902 83.9053 71.5902 85.6108V92.8983C71.5902 93.3856 71.4352 93.7843 71.1251 94.0944C70.815 94.4045 70.4162 94.5596 69.9289 94.5596C69.4416 94.5596 69.0429 94.4045 68.7328 94.0944C68.4227 93.7843 68.2677 93.3856 68.2677 92.8983V91.7022C67.5146 92.6325 66.5842 93.3634 65.4767 93.8951C64.3914 94.4267 63.2174 94.6703 61.9548 94.6703C60.3822 94.6703 58.9645 94.2716 57.6798 93.4963C56.3951 92.7211 55.3984 91.6357 54.6674 90.2403C53.9364 88.8669 53.582 87.3164 53.582 85.6108C53.582 83.9053 53.9807 82.3769 54.756 80.9814C55.5313 79.6081 56.6166 78.5006 58.0121 77.7032C59.3854 76.9058 60.9359 76.5071 62.5972 76.5071C64.2585 76.5292 65.7868 76.9279 67.1602 77.7032ZM65.5432 90.9269C66.4292 90.3953 67.1159 89.6643 67.6253 88.734C68.1348 87.8037 68.3784 86.7627 68.3784 85.6108C68.3784 84.459 68.1348 83.418 67.6253 82.4655C67.1159 81.5352 66.4292 80.7821 65.5432 80.2505C64.6572 79.7189 63.6826 79.4531 62.575 79.4531C61.4897 79.4531 60.4929 79.7189 59.6069 80.2505C58.7209 80.7821 58.0342 81.513 57.5248 82.4655C57.0153 83.3958 56.7495 84.459 56.7495 85.6108C56.7495 86.7627 57.0153 87.8037 57.5248 88.734C58.0342 89.6643 58.743 90.3953 59.6069 90.9269C60.4929 91.4585 61.4675 91.7243 62.575 91.7243C63.6826 91.7243 64.6572 91.4585 65.5432 90.9269Z" fill="#016AB5"/>
</g>
<defs>
<clipPath id="clip0_331_45">
<rect width="123.001" height="108.957" fill="white"/>
</clipPath>
</defs>
</svg>
