<svg width="200" height="33" viewBox="0 0 200 33" fill="none" xmlns="http://www.w3.org/2000/svg">
<path d="M0.15564 26.0523C-0.139915 26.5189 -0.00129768 27.1367 0.465249 27.4322L8.06807 32.2486C8.53462 32.5441 9.15242 32.4055 9.44798 31.939C9.74353 31.4724 9.60492 30.8546 9.13837 30.5591L2.3803 26.2779L6.66149 19.5198C6.95705 19.0533 6.81843 18.4354 6.35188 18.1399C5.88534 17.8443 5.26753 17.983 4.97198 18.4495L0.15564 26.0523ZM198.535 17.4478C199.053 17.6397 199.629 17.3755 199.821 16.8577C200.013 16.3398 199.748 15.7644 199.23 15.5725L198.883 16.5101L198.535 17.4478ZM1.0004 26.5875L1.21932 27.5632C25.0847 22.2085 96.7624 -20.2723 198.535 17.4478L198.883 16.5101L199.23 15.5725C96.7208 -22.4207 24.0187 20.398 0.781471 25.6117L1.0004 26.5875Z" fill="url(#paint0_linear_558_2702)"/>
<defs>
<linearGradient id="paint0_linear_558_2702" x1="1.60274" y1="11.4538" x2="198.772" y2="19.3013" gradientUnits="userSpaceOnUse">
<stop stop-color="#A2CF6A"/>
<stop offset="1"/>
</linearGradient>
</defs>
</svg>
