<svg width="243" height="27" viewBox="0 0 243 27" fill="none" xmlns="http://www.w3.org/2000/svg">
<path d="M6.19416 26.3897V24.6324C6.19416 23.9584 5.78401 23.5193 5.11078 23.5193C4.7572 23.5193 4.37886 23.6366 4.11509 24.0143C3.91001 23.6918 3.62007 23.5193 3.17809 23.5193C3.01376 23.5121 2.85024 23.5459 2.70214 23.6175C2.55405 23.6891 2.42602 23.7962 2.32949 23.9294V23.5758H1.77295V26.3876H2.32949V24.7787C2.32949 24.2837 2.62226 24.0468 3.03242 24.0468C3.44257 24.0468 3.67665 24.3106 3.67665 24.7787V26.3897H4.23319V24.7787C4.23319 24.2837 4.52595 24.0468 4.93611 24.0468C5.34627 24.0468 5.58034 24.3106 5.58034 24.7787V26.3897H6.19416ZM15.3322 23.6069H14.3068V22.7583H13.7517V23.6069H13.1661V24.102H13.7517V25.423C13.7517 26.0672 13.9857 26.4484 14.6887 26.4484C14.955 26.4429 15.2159 26.3725 15.4489 26.2433L15.2728 25.7483C15.1148 25.8471 14.9315 25.8979 14.7452 25.8947C14.4525 25.8947 14.3061 25.7186 14.3061 25.4258V24.0793H15.3315V23.6105L15.3322 23.6069ZM20.5454 23.5193C20.3938 23.5159 20.244 23.5519 20.1105 23.6238C19.977 23.6957 19.8644 23.801 19.7838 23.9294V23.5758H19.2273V26.3876H19.7838V24.8084C19.7838 24.3396 20.0179 24.0468 20.399 24.0468C20.5277 24.052 20.6553 24.0717 20.7795 24.1055L20.9556 23.5779C20.8213 23.5441 20.6838 23.5244 20.5454 23.5193ZM12.6669 23.812C12.3741 23.6069 11.9639 23.5193 11.5248 23.5193C10.8219 23.5193 10.3827 23.8417 10.3827 24.3983C10.3827 24.8671 10.7052 25.1302 11.3197 25.2186L11.6125 25.2476C11.935 25.3063 12.14 25.4237 12.14 25.5701C12.14 25.7752 11.906 25.9237 11.4661 25.9237C11.1302 25.9306 10.8013 25.8278 10.5291 25.6309L10.2363 26.0701C10.6465 26.3628 11.1443 26.4237 11.4385 26.4237C12.2588 26.4237 12.698 26.0432 12.698 25.5156C12.698 25.0206 12.3444 24.7837 11.7313 24.6953L11.4385 24.6663C11.1747 24.6373 10.9435 24.5489 10.9435 24.3735C10.9435 24.1684 11.1776 24.0199 11.5 24.0199C11.8536 24.0199 12.203 24.1663 12.3791 24.254L12.6669 23.812ZM21.1607 24.9838C21.1607 25.8324 21.7172 26.4484 22.6252 26.4484C23.0354 26.4484 23.3281 26.3607 23.6209 26.1259L23.3281 25.6868C23.1208 25.8546 22.8629 25.9476 22.5962 25.9505C22.1012 25.9505 21.7172 25.5701 21.7172 25.0135C21.7172 24.457 22.0963 24.0793 22.5962 24.0793C22.8629 24.0823 23.1208 24.1752 23.3281 24.3431L23.6209 23.904C23.3281 23.6699 23.0354 23.5815 22.6252 23.5815C21.7462 23.5228 21.1607 24.138 21.1607 24.9874V24.9838ZM17.2359 23.5193C16.4156 23.5193 15.859 24.1048 15.859 24.9838C15.859 25.8629 16.4446 26.4484 17.2939 26.4484C17.7071 26.4571 18.1105 26.3227 18.4359 26.0679L18.1432 25.6578C17.9078 25.8401 17.6205 25.9427 17.3229 25.9505C16.9424 25.9505 16.5323 25.7165 16.4743 25.2186H18.554V24.9845C18.554 24.1055 18.0265 23.52 17.2359 23.52V23.5193ZM17.2069 24.0468C17.617 24.0468 17.9098 24.3106 17.9388 24.7498H16.4163C16.504 24.3396 16.7699 24.0468 17.2069 24.0468ZM9.6211 24.9838V23.5779H9.06456V23.9315C8.85948 23.6678 8.56954 23.5214 8.15655 23.5214C7.36594 23.5214 6.7797 24.1366 6.7797 24.986C6.7797 25.8353 7.36523 26.4505 8.15655 26.4505C8.56671 26.4505 8.85948 26.3041 9.06456 26.0404V26.394H9.6211V24.9838ZM7.36594 24.9838C7.36594 24.4563 7.68841 24.0468 8.24495 24.0468C8.7725 24.0468 9.09355 24.457 9.09355 24.9838C9.09355 25.5404 8.73997 25.9208 8.24495 25.9208C7.68841 25.9498 7.36594 25.5107 7.36594 24.9838ZM29.0109 23.5193C28.8594 23.5159 28.7095 23.5519 28.576 23.6238C28.4425 23.6957 28.3299 23.801 28.2493 23.9294V23.5758H27.6928V26.3876H28.2486V24.8084C28.2486 24.3396 28.4827 24.0468 28.8638 24.0468C28.9925 24.052 29.1201 24.0717 29.2443 24.1055L29.4204 23.5779C29.2861 23.5441 29.1486 23.5244 29.0102 23.5193H29.0109ZM26.8435 24.9838V23.5779H26.2869V23.9315C26.0819 23.6678 25.7919 23.5214 25.3789 23.5214C24.5883 23.5214 24.0021 24.1366 24.0021 24.986C24.0021 25.8353 24.5876 26.4505 25.3789 26.4505C25.7891 26.4505 26.0819 26.3041 26.2869 26.0404V26.394H26.8435V24.9838ZM24.5883 24.9838C24.5883 24.4563 24.9108 24.0468 25.4673 24.0468C25.9949 24.0468 26.3159 24.457 26.3159 24.9838C26.3159 25.5404 25.9623 25.9208 25.4673 25.9208C24.9108 25.9498 24.5883 25.5107 24.5883 24.9838ZM32.4966 24.9838V22.4648H31.94V23.9294C31.735 23.6656 31.445 23.5193 31.032 23.5193C30.2414 23.5193 29.6552 24.1345 29.6552 24.9838C29.6552 25.8332 30.2407 26.4484 31.032 26.4484C31.4422 26.4484 31.735 26.302 31.94 26.0382V26.3918H32.4966V24.9838ZM30.2414 24.9838C30.2414 24.4563 30.5639 24.0468 31.1204 24.0468C31.648 24.0468 31.969 24.457 31.969 24.9838C31.969 25.5404 31.6154 25.9208 31.1204 25.9208C30.5632 25.9505 30.2407 25.5114 30.2407 24.9838H30.2414Z" fill="black"/>
<path d="M22.1864 2.25586H12.0229V18.8336H22.1864V2.25586Z" fill="#FF5F00"/>
<path d="M13.0483 10.5441C13.0487 8.94931 13.4098 7.37526 14.1047 5.93982C14.7996 4.50437 15.8102 3.24473 17.0608 2.25521C15.5054 1.03229 13.6374 0.271683 11.6702 0.0603333C9.70293 -0.151016 7.71593 0.195422 5.9363 1.06005C4.15667 1.92467 2.65621 3.27259 1.60645 4.94972C0.556696 6.62685 0 8.56552 0 10.5441C0 12.5227 0.556696 14.4614 1.60645 16.1385C2.65621 17.8156 4.15667 19.1635 5.9363 20.0282C7.71593 20.8928 9.70293 21.2392 11.6702 21.0279C13.6374 20.8165 15.5054 20.0559 17.0608 18.833C15.8102 17.8435 14.7996 16.5838 14.1047 15.1484C13.4098 13.7129 13.0487 12.1389 13.0483 10.5441Z" fill="#EB001B"/>
<path d="M34.137 10.5441C34.1384 12.5212 33.5834 14.4588 32.5353 16.1354C31.4873 17.8119 29.9886 19.1596 28.2106 20.0243C26.4326 20.889 24.4472 21.2359 22.4813 21.0252C20.5155 20.8145 18.6486 20.0548 17.0942 18.8329C18.3452 17.8437 19.356 16.5841 20.0509 15.1486C20.7458 13.7131 21.1068 12.1389 21.1068 10.5441C21.1068 8.94919 20.7458 7.37502 20.0509 5.93952C19.356 4.50401 18.3452 3.24443 17.0942 2.25517C18.6486 1.0333 20.5155 0.273587 22.4813 0.0629073C24.4472 -0.147772 26.4326 0.199092 28.2106 1.06383C29.9886 1.92856 31.4873 3.27626 32.5353 4.95277C33.5834 6.62928 34.1384 8.56691 34.137 10.5441Z" fill="#F79E1B"/>
<circle cx="61.6372" cy="13.2256" r="2.5" fill="#D9D9D9"/>
<path d="M121.454 2.50586H90.9579C89.9523 2.50586 89.1372 3.321 89.1372 4.32653V22.1236C89.1372 23.1291 89.9523 23.9442 90.9579 23.9442H121.454C122.46 23.9442 123.275 23.1291 123.275 22.1236V4.32653C123.275 3.321 122.46 2.50586 121.454 2.50586Z" fill="#0E4595"/>
<path d="M101.8 17.719L103.318 8.80859H105.747L104.227 17.719H101.8Z" fill="white"/>
<path d="M113.002 9.00021C112.521 8.8197 111.767 8.62598 110.825 8.62598C108.425 8.62598 106.735 9.83449 106.721 11.5665C106.707 12.8469 107.927 13.5611 108.849 13.9873C109.794 14.4241 110.112 14.7026 110.107 15.0926C110.101 15.6899 109.352 15.9628 108.654 15.9628C107.682 15.9628 107.166 15.8277 106.368 15.495L106.055 15.3534L105.714 17.3481C106.282 17.5968 107.331 17.8123 108.42 17.8235C110.973 17.8235 112.63 16.6288 112.649 14.7792C112.658 13.7656 112.011 12.9942 110.61 12.3583C109.761 11.9461 109.241 11.671 109.247 11.2537C109.247 10.8833 109.687 10.4872 110.637 10.4872C111.432 10.4749 112.007 10.6481 112.455 10.8286L112.673 10.9314L113.002 9.00021Z" fill="white"/>
<path d="M119.252 8.80859H117.375C116.793 8.80859 116.358 8.96726 116.103 9.54751L112.496 17.7133H115.046C115.046 17.7133 115.463 16.6154 115.558 16.3743C115.836 16.3743 118.314 16.3782 118.668 16.3782C118.741 16.6901 118.964 17.7133 118.964 17.7133H121.217L119.252 8.80859ZM116.274 14.5622C116.475 14.0488 117.242 12.0714 117.242 12.0714C117.227 12.0951 117.441 11.5555 117.564 11.221L117.728 11.9892C117.728 11.9892 118.193 14.1162 118.29 14.5622H116.274V14.5622Z" fill="white"/>
<path d="M91.2254 8.80859L91.1943 8.99404C92.1543 9.22643 93.0118 9.5627 93.7625 9.98109L95.9175 17.7049L98.4871 17.7019L102.311 8.80859H99.7381L97.3602 14.8849L97.1069 13.6501C97.0952 13.6124 97.0825 13.5746 97.0695 13.5367L96.2426 9.56086C96.0956 8.99664 95.6692 8.82826 95.1417 8.80859H91.2254Z" fill="white"/>
<circle cx="150.774" cy="13.2256" r="2.5" fill="#D9D9D9"/>
<path d="M210.008 24.2256H180.541C179.29 24.2256 178.274 23.2402 178.274 22.0256V4.42559C178.274 3.211 179.29 2.22559 180.541 2.22559H210.008C211.259 2.22559 212.274 3.211 212.274 4.42559V22.0256C212.274 23.2402 211.259 24.2256 210.008 24.2256ZM204.523 17.7081V18.7256C204.674 18.7458 204.846 18.7577 205.022 18.7577H205.037C206.354 18.7577 206.978 18.2608 207.516 16.7896L209.891 10.3271H208.517L206.925 15.3193H206.897L205.304 10.3271H203.892L206.182 16.4807L206.059 16.8547C205.976 17.3579 205.531 17.7374 204.997 17.7374C204.97 17.7374 204.944 17.7365 204.917 17.7347H204.921C204.815 17.7301 204.607 17.7182 204.524 17.7081H204.523ZM183.67 9.60842H183.645C182.809 9.63134 182.086 10.0842 181.702 10.746L181.696 10.757C180.899 12.088 181.406 14.1248 182.288 15.3651C182.702 15.9518 183.155 16.5256 183.753 16.5256H183.785C184.036 16.51 184.267 16.4468 184.476 16.345L184.465 16.3496C184.717 16.2268 185.014 16.1543 185.328 16.1516C185.631 16.1534 185.918 16.2249 186.17 16.3496L186.16 16.345C186.363 16.4477 186.602 16.51 186.856 16.5155H186.858H186.883C187.549 16.5036 187.966 15.9105 188.336 15.388C188.599 15.0177 188.817 14.5914 188.97 14.1358L188.981 14.101V14.0918L188.964 14.0845C188.227 13.7591 187.724 13.0533 187.719 12.2319V12.231C187.726 11.5013 188.122 10.8633 188.715 10.5013L188.724 10.4967L188.741 10.4857C188.354 9.94667 187.726 9.59284 187.012 9.5745H187.01C186.977 9.5745 186.943 9.5745 186.909 9.5745C186.488 9.5965 186.095 9.69459 185.739 9.85592L185.759 9.84767C185.597 9.92467 185.408 9.98059 185.209 10.0044L185.2 10.0053C184.985 9.98242 184.788 9.92559 184.609 9.83942L184.619 9.844C184.342 9.71384 184.019 9.62859 183.678 9.60659H183.67V9.60842ZM200.777 11.2731C201.608 11.2731 202.067 11.6508 202.067 12.3355V12.8021L200.38 12.8993C198.798 12.9918 197.962 13.6143 197.962 14.6987C197.974 15.7143 198.824 16.5329 199.872 16.5329C199.951 16.5329 200.029 16.5283 200.105 16.5192L200.096 16.5201C200.114 16.521 200.135 16.521 200.157 16.521C200.978 16.521 201.696 16.092 202.085 15.4513L202.09 15.4412H202.119V16.4513H203.37V12.2475C203.37 11.0283 202.368 10.2418 200.817 10.2418C199.387 10.2418 198.324 11.0375 198.282 12.1329H199.5C199.636 11.6297 200.1 11.2648 200.651 11.2648C200.696 11.2648 200.74 11.2676 200.783 11.2722L200.778 11.2713L200.777 11.2731ZM191.497 8.00425V16.4523H192.848V13.5629H194.715C194.759 13.5657 194.811 13.5666 194.862 13.5666C196.39 13.5666 197.628 12.3648 197.628 10.8817C197.628 10.8441 197.627 10.8074 197.626 10.7708V10.7763C197.628 10.7414 197.629 10.7011 197.629 10.6598C197.629 9.19134 196.403 8.0015 194.89 8.0015C194.845 8.0015 194.799 8.00242 194.755 8.00425H194.762H191.497ZM187.013 7.35892C186.452 7.41209 185.963 7.67059 185.618 8.05559L185.617 8.05834C185.302 8.40025 185.11 8.854 185.11 9.35084C185.11 9.39392 185.112 9.437 185.115 9.47917V9.47367C185.147 9.47367 185.181 9.47734 185.219 9.47734C185.748 9.448 186.212 9.20234 186.52 8.82925L186.523 8.82559C186.832 8.47084 187.02 8.00884 187.02 7.50284C187.02 7.45242 187.018 7.402 187.014 7.35159V7.358L187.013 7.35892ZM200.458 15.5182C199.743 15.5182 199.279 15.1836 199.279 14.6666C199.279 14.1331 199.723 13.826 200.563 13.7774L202.065 13.6858V14.1633C202.032 14.9223 201.39 15.5246 200.603 15.5246C200.552 15.5246 200.502 15.5218 200.452 15.5173L200.458 15.5182ZM194.397 12.4657H192.844V9.10975H194.403C194.469 9.10059 194.545 9.09509 194.624 9.09509C195.522 9.09509 196.25 9.80184 196.25 10.6736C196.25 10.7121 196.248 10.7515 196.245 10.7891V10.7836C196.248 10.8166 196.249 10.856 196.249 10.8954C196.249 11.7699 195.518 12.4794 194.617 12.4794C194.54 12.4794 194.462 12.4739 194.388 12.4638L194.396 12.4648L194.397 12.4657Z" fill="black"/>
<circle cx="239.774" cy="13.2256" r="2.5" fill="#D9D9D9"/>
</svg>
